<svg width="40" height="40" viewBox="0 0 40 40" fill="none" xmlns="http://www.w3.org/2000/svg">
<rect width="40" height="40" rx="20" fill="#0057FF"/>
<path d="M15.3607 11.6221C16.1304 11.6221 16.8409 11.6813 17.4922 11.8589C18.1435 11.9773 18.6763 12.2141 19.15 12.5102C19.6236 12.8062 19.9789 13.2207 20.2157 13.7535C20.4525 14.2864 20.571 14.9377 20.571 15.6482C20.571 16.4771 20.3933 17.1876 19.9789 17.7205C19.6236 18.2533 19.0316 18.727 18.3211 19.0822C19.3276 19.3783 20.0973 19.9111 20.571 20.6216C21.0446 21.3321 21.3407 22.2202 21.3407 23.2268C21.3407 24.0557 21.163 24.7662 20.867 25.3582C20.571 25.9503 20.0973 26.4832 19.5644 26.8384C19.0316 27.1937 18.3803 27.4897 17.6698 27.6673C16.9593 27.845 16.2488 27.9634 15.5383 27.9634H7.60449V11.6221H15.3607ZM14.887 18.2533C15.5383 18.2533 16.0712 18.0757 16.4856 17.7797C16.9001 17.4836 17.0777 16.9508 17.0777 16.2995C17.0777 15.9442 17.0185 15.589 16.9001 15.3522C16.7817 15.1153 16.6041 14.9377 16.3672 14.7601C16.1304 14.6417 15.8936 14.5232 15.5975 14.464C15.3015 14.4048 15.0054 14.4048 14.6502 14.4048H11.2162V18.2533H14.887ZM15.0647 25.2398C15.4199 25.2398 15.7751 25.1806 16.0712 25.1214C16.3672 25.0622 16.6633 24.9438 16.9001 24.7662C17.1369 24.5885 17.3145 24.4109 17.4922 24.1149C17.6106 23.8188 17.729 23.4636 17.729 23.0491C17.729 22.2202 17.4922 21.6282 17.0185 21.2137C16.5448 20.8585 15.8936 20.6808 15.1239 20.6808H11.2162V25.2398H15.0647ZM26.4917 25.1806C26.9654 25.6543 27.6759 25.8911 28.6232 25.8911C29.2745 25.8911 29.8666 25.7135 30.3402 25.4174C30.8139 25.0622 31.1099 24.707 31.2283 24.3517H34.1295C33.6559 25.7727 32.9454 26.7792 31.998 27.4305C31.0507 28.0226 29.9258 28.3778 28.564 28.3778C27.6167 28.3778 26.7878 28.2002 26.0181 27.9042C25.2484 27.6081 24.6563 27.1937 24.1234 26.6016C23.5906 26.0687 23.1761 25.4175 22.9393 24.6478C22.6432 23.8781 22.5248 23.0491 22.5248 22.1018C22.5248 21.2137 22.6432 20.3848 22.9393 19.6151C23.2353 18.8454 23.6498 18.1941 24.1826 17.602C24.7155 17.0692 25.3668 16.5955 26.0773 16.2995C26.847 16.0034 27.6167 15.8258 28.564 15.8258C29.5705 15.8258 30.4586 16.0034 31.2283 16.4179C31.998 16.8323 32.5901 17.306 33.0638 18.0165C33.5374 18.6678 33.8927 19.4375 34.1295 20.2664C34.2479 21.0953 34.3071 21.9242 34.2479 22.8715H25.6628C25.6628 23.8188 26.0181 24.707 26.4917 25.1806ZM30.2218 18.9638C29.8074 18.5494 29.1561 18.3125 28.3864 18.3125C27.8535 18.3125 27.4391 18.4309 27.0838 18.6086C26.7286 18.7862 26.4917 19.023 26.2549 19.2599C26.0181 19.4967 25.8997 19.7927 25.8404 20.0888C25.7812 20.3848 25.722 20.6216 25.722 20.8585H31.0507C30.9323 19.9703 30.6363 19.3783 30.2218 18.9638ZM25.0115 12.747H31.6428V14.3456H25.0115V12.747Z" fill="white"/>
</svg>
