<svg width="40" height="40" viewBox="0 0 40 40" fill="none" xmlns="http://www.w3.org/2000/svg">
<rect width="40" height="40" rx="20" fill="#292929"/>
<path d="M32.0837 29.7143L30.2759 27.9048C30.0856 27.8095 29.9905 27.5238 29.9905 27.3333V12.8571C29.9905 12.6667 30.0856 12.381 30.2759 12.1905L32.0837 10.0952V10H25.6138L20.7615 22.2857L15.2431 10H8.583V10.0952L10.2956 12.4762C10.6762 12.8571 10.7713 13.4286 10.7713 13.9048V24.381C10.8665 24.9524 10.7713 25.619 10.4859 26.1905L7.91699 29.7143V29.8095H14.7674V29.7143L12.1985 26.2857C11.9131 25.7143 11.8179 25.1429 11.9131 24.4762V14.9524C12.0082 15.1429 12.1033 15.1429 12.1985 15.5238L18.6683 30H18.7634L25.043 14.2857C24.9478 14.8571 24.9478 15.5238 24.9478 16V27.2381C24.9478 27.5238 24.8527 27.7143 24.6624 27.9048L22.7595 29.7143V29.8095H32.0837V29.7143Z" fill="white"/>
</svg>
