<svg width="39" height="40" viewBox="0 0 39 40" fill="none" xmlns="http://www.w3.org/2000/svg">
<rect width="38.75" height="40" rx="19.375" fill="#0077B5"/>
<path d="M30.1328 29.4376C28.8613 29.4064 27.6201 29.4064 26.3486 29.4376C26.0762 29.4376 26.0156 29.3751 26.0156 29.0939C26.0156 26.7814 26.0156 24.4376 26.0156 22.1251C26.0156 21.5939 25.9854 21.0626 25.834 20.5626C25.3799 18.9376 23.5635 18.3439 22.2617 19.4376C21.5654 20.0001 21.293 20.7814 21.293 21.7189C21.293 23.9064 21.293 26.0939 21.293 28.2814C21.293 28.5626 21.2627 28.8439 21.293 29.1564C21.3232 29.4064 21.2021 29.4689 20.9902 29.4376C19.6885 29.4376 18.417 29.4376 17.1152 29.4376C16.873 29.4376 16.8125 29.3751 16.8125 29.1251C16.8428 27.1564 16.8428 25.1876 16.8428 23.1876C16.8428 20.7501 16.8428 18.3126 16.8125 15.9064C16.8125 15.6251 16.873 15.5626 17.1152 15.5626C18.417 15.5626 19.6885 15.5626 20.9902 15.5626C21.2324 15.5626 21.293 15.6251 21.293 15.8751C21.293 16.3751 21.293 16.8751 21.293 17.4689C21.3838 17.3751 21.4141 17.3439 21.4443 17.3126C22.625 15.5314 24.29 15.0314 26.2578 15.3439C28.5283 15.7189 29.9814 17.3439 30.3447 19.8439C30.4355 20.4376 30.4658 21.0314 30.4658 21.6251C30.4658 24.1251 30.4658 26.5939 30.4658 29.0939C30.4658 29.3439 30.4053 29.4376 30.1328 29.4376Z" fill="white"/>
<path d="M14.3906 22.5C14.3906 24.6875 14.3906 26.875 14.3906 29.0625C14.3906 29.3438 14.3301 29.4375 14.0576 29.4375C12.7861 29.4062 11.5146 29.4375 10.2432 29.4375C10.001 29.4375 9.94043 29.375 9.94043 29.125C9.94043 24.7188 9.94043 20.2812 9.94043 15.875C9.94043 15.6562 10.001 15.5625 10.2432 15.5625C11.5449 15.5625 12.8467 15.5625 14.1484 15.5625C14.4209 15.5625 14.4512 15.6562 14.4512 15.9062C14.3906 18.0938 14.3906 20.2812 14.3906 22.5Z" fill="white"/>
<path d="M14.6024 11.9378C14.2996 13.1878 13.0584 13.9065 11.6356 13.6565C10.1219 13.4065 9.27423 11.8753 9.81915 10.3753C10.1824 9.43776 11.0604 8.87526 12.1805 8.90651C13.8758 8.87526 14.9959 10.2815 14.6024 11.9378Z" fill="white"/>
</svg>
